<?xml version="1.0" encoding="utf-8"?>
<!-- Generator: Adobe Illustrator 18.0.0, SVG Export Plug-In . SVG Version: 6.00 Build 0)  -->
<!DOCTYPE svg PUBLIC "-//W3C//DTD SVG 1.1//EN" "http://www.w3.org/Graphics/SVG/1.1/DTD/svg11.dtd">
<svg version="1.1" id="Ebene_1" xmlns="http://www.w3.org/2000/svg" xmlns:xlink="http://www.w3.org/1999/xlink" x="0px" y="0px"
	 viewBox="0 0 4.1757812 2.3316405" enable-background="new 0 0 4.1757812 2.3316405" xml:space="preserve">
<path d="M4.0800781,0.0035155c0.0639648,0,0.0957031,0.0439453,0.0957031,0.1318359v0.959961
	c0,0.0800781-0.0317383,0.1401367-0.0957031,0.1801758L2.184082,2.3077147
	C2.1357422,2.323828,2.1040039,2.3316405,2.0878906,2.3316405c-0.0317383,0-0.0639648-0.0078125-0.0957031-0.0239258
	L0.0961914,1.2754883C0.0322266,1.2354492,0,1.1753906,0,1.0953125l0-0.959961c0-0.0556641,0.0161133-0.0957031,0.0478516-0.1201172
	c0.0322266-0.0239258,0.0722656-0.0195312,0.1201172,0.012207l1.8837891,1.0678711
	c0.0244141,0.0083008,0.0483398,0.0083008,0.0722656,0l1.8837891-1.0678711L4.0800781,0.0035155z"/>
<g>
</g>
<g>
</g>
<g>
</g>
<g>
</g>
<g>
</g>
<g>
</g>
<g>
</g>
<g>
</g>
<g>
</g>
<g>
</g>
<g>
</g>
<g>
</g>
<g>
</g>
<g>
</g>
<g>
</g>
</svg>
