<?xml version="1.0" encoding="utf-8"?>
<!-- Generator: Adobe Illustrator 18.0.0, SVG Export Plug-In . SVG Version: 6.00 Build 0)  -->
<!DOCTYPE svg PUBLIC "-//W3C//DTD SVG 1.1//EN" "http://www.w3.org/Graphics/SVG/1.1/DTD/svg11.dtd">
<svg version="1.1" id="Ebene_1" xmlns="http://www.w3.org/2000/svg" xmlns:xlink="http://www.w3.org/1999/xlink" x="0px" y="0px"
	 viewBox="0 0 960 560" enable-background="new 0 0 960 560" xml:space="preserve">
<path d="M392.9271545,530.0845337c-73.0482178,0-151.5383453-5.5132446-152.3187714-5.5719604l-2.8279419-0.201416
	l-0.1636353-2.8279419c-0.0964966-1.661499-9.4488525-168.0151062,0.0041962-309.3745728
	c3.641922-54.5491028,0.0293732-170.2262878-0.0083923-171.3885193l-0.1006927-3.2433243l3.2433167-0.0797195
	c0.6503448-0.0167809,65.6846771-1.5776062,125.9819794-1.5776062c35.4542236,0,62.378418,0.5328636,80.0257874,1.5818024
	c26.4458923,1.5776062,63.4231567,2.3748016,109.9038086,2.3748016c79.1992188,0,159.5564575-2.3538208,160.3620605-2.3789978
	l3.1636353-0.092308l0.151001,3.1594086c0.0587769,1.3762169,6.5118408,138.7161255-0.0083618,231.3459778
	c-11.6054688,165.1536255-0.1426392,248.2129822-0.0251465,249.0353088l0.5706177,3.9943848l-4.0195923-0.3272705
	c-0.6880493-0.0587769-69.3139648-5.5551758-135.7496948-5.5551758c-38.9199219,0-69.4482422,1.8545532-90.7333679,5.5132446
	C468.7320251,528.1964111,435.9463501,530.0845337,392.9271545,530.0845337z M243.8978729,518.27771
	c14.7103424,0.9817505,84.0411224,5.3621826,149.0292816,5.3621826c42.6541443,0,75.0747986-1.8545532,96.3599243-5.5132446
	c21.6459351-3.7258911,52.5435486-5.6139526,91.8242493-5.6139526c57.5658569,0,116.7597046,4.1118164,132.3344116,5.2698975
	c-2.1063232-18.4026489-9.7845459-100.6564026,0.4614868-246.4255676
	c5.9412231-84.4313507,1.057373-206.3266602,0.1342773-227.4271698
	c-15.6921387,0.4321632-86.9949341,2.2908859-157.3746948,2.2908859c-46.6065063,0-83.7138672-0.8013916-110.2898254-2.383194
	c-17.5173035-1.0447464-44.3114319-1.57341-79.6397705-1.57341c-52.5477295,0-108.6954346,1.1874008-122.5834045,1.5020828
	c0.5580292,19.2627449,3.2139587,119.084137-0.1048889,168.7703705
	C235.3007507,343.3731079,242.7104645,495.7212524,243.8978729,518.27771z M333.2424316,164.0629578h-17.2865295v14.5760956
	h20.4585266v9.2138672H304.84552v-54.9812622h31.50177v9.2474518h-20.3913879v12.9900818h17.2865295V164.0629578z
	 M353.9023743,178.6390533h19.4851379v9.2138672h-30.59552v-54.9812622h11.1103821V178.6390533z M391.3957214,187.8529205
	h-11.1019897v-54.9812622h11.1019897V187.8529205z M423.954834,173.4279022c0-2.2405243-0.5706177-3.9356384-1.7202454-5.076889
	c-1.1412659-1.1496277-3.2307434-2.33284-6.2516785-3.5747833c-5.5048523-2.0810852-9.4740601-4.5314178-11.8908081-7.3425903
	c-2.4167786-2.8027649-3.6251526-6.1174164-3.6251526-9.9439545c0-4.6321106,1.6447449-8.3579559,4.9258118-11.1607208
	c3.2894897-2.8111572,7.460083-4.2125549,12.5201721-4.2125549c3.3734131,0,6.3775635,0.7132874,9.0292969,2.1314545
	c2.6349487,1.4265594,4.6740723,3.4321289,6.0922546,6.025116c1.4265442,2.5929871,2.1314392,5.5384064,2.1314392,8.8362885
	H424.105896c0-2.5678101-0.5454712-4.5230408-1.6447449-5.8740692c-1.0909119-1.3426514-2.6769104-2.0223694-4.7328186-2.0223694
	c-1.9468384,0-3.4573364,0.5790253-4.5314331,1.7202759c-1.0908813,1.1496277-1.6279602,2.6936646-1.6279602,4.6237183
	c0,1.5104675,0.604187,2.8782959,1.812561,4.1034546c1.2084045,1.2167816,3.3482361,2.483902,6.4195251,3.7929688
	c5.3622131,1.938446,9.2558594,4.32164,11.6894226,7.1412048c2.4251404,2.8195343,3.6419067,6.40271,3.6419067,10.7579193
	c0,4.7831726-1.5272522,8.5258026-4.5650024,11.2110901c-3.0545044,2.7020569-7.1915283,4.0447083-12.4278564,4.0447083
	c-3.5495911,0-6.7887268-0.7300568-9.7089844-2.1901855s-5.2027283-3.5496216-6.8474731-6.2684631
	c-1.6531372-2.7188721-2.4755249-5.9244232-2.4755249-9.6334839h11.1355591c0,3.1719971,0.6210022,5.4796753,1.8545227,6.9146118
	c1.2335815,1.434967,3.2475281,2.1482391,6.0419006,2.1482391
	C422.0163879,179.5788879,423.954834,177.5313416,423.954834,173.4279022z M468.7320251,176.5998993H453.593689
	l-2.9537964,11.2530212h-11.7397461l17.1774597-54.9812622h10.1621399l17.2949219,54.9812622h-11.8572083L468.7320251,176.5998993z
	 M456.0104675,167.3440399h10.2712402l-5.1356201-19.5942078L456.0104675,167.3440399z M488.6702881,187.8529205v-54.9812622
	h17.0012207c5.7398071,0,10.0950317,1.2755127,13.0823975,3.8349152c2.9790039,2.5510406,4.4726562,6.3020477,4.4726562,11.2362518
	c0,2.7859955-0.6209106,5.1943665-1.8461304,7.2083282c-1.2419434,2.0139771-2.9285889,3.4908752-5.0684814,4.4223328
	c2.4671021,0.7048798,4.3720093,2.1146698,5.7062378,4.2461243c1.3342896,2.1230469,1.9971924,4.749588,1.9971924,7.8712463
	c0,5.3370056-1.460144,9.3649445-4.3971558,12.083786c-2.9286499,2.7188721-7.1831055,4.0782776-12.7383423,4.0782776H488.6702881z
	 M499.7806702,155.8644409h5.7733765c4.3551941,0,6.528595-2.2489319,6.528595-6.7551727
	c0-2.4922943-0.503479-4.2796936-1.5104675-5.3621979s-2.6349487-1.6279602-4.9006653-1.6279602h-5.8908386V155.8644409z
	 M499.7806702,163.9538574v14.6851959h7.0992126c1.9804077,0,3.4908752-0.6125946,4.5314331-1.8461456
	c1.0238037-1.2335663,1.5440674-2.987381,1.5440674-5.2530975c0-4.9342346-1.7874146-7.4600677-5.3622131-7.5859528H499.7806702z
	 M560.451416,164.0629578H543.164856v14.5760956h20.4585571v9.2138672h-31.5689087v-54.9812622h31.50177v9.2474518H543.164856
	v12.9900818h17.2865601V164.0629578z M606.3782349,142.1191101h-13.5942993v45.7338104h-11.1439209v-45.7338104h-13.359314
	v-9.2474518h38.0975342V142.1191101z M651.3148804,187.8529205H640.24646v-23.5298157h-16.3803101v23.5298157h-11.1104126
	v-54.9812622h11.1104126v22.2375336H640.24646v-22.2375336h11.0684204V187.8529205z M419.4905396,225.6735382h11.1019897v38.0639801
	c0,5.3369751-1.4852905,9.6166687-4.4559021,12.8390198s-6.7971191,4.8334961-11.4795837,4.8334961
	c-5.0349426,0-8.9453735-1.4936829-11.7481384-4.4978333c-2.7860107-2.9873657-4.1873779-7.1579895-4.1873779-12.4949951h11.1355591
	c0,5.1859741,1.6027832,7.7789612,4.7999573,7.7789612c3.2223206,0,4.8334961-2.9957581,4.8334961-8.9873352V225.6735382z
	 M464.7292786,269.4017944h-15.1383362l-2.9537964,11.2530212h-11.7397766l17.1774902-54.9812775h10.1621399l17.2949219,54.9812775
	h-11.8572388L464.7292786,269.4017944z M452.0076904,260.1459351h10.2712402l-5.1356201-19.594223L452.0076904,260.1459351z
	 M523.2182007,280.6548157h-11.0684204v-23.5298462h-16.3802795v23.5298462h-11.1103516v-54.9812775h11.1103516v22.2375488
	h16.3802795v-22.2375488h11.0684204V280.6548157z M570.5800171,280.6548157h-11.1104126l-16.229187-36.0667725v36.0667725
	h-11.1104126v-54.9812775h11.1104126l16.2711182,36.1003571v-36.1003571h11.0684814V280.6548157z M594.9741211,259.4326477
	l-4.3803711,5.5132446v15.7089233h-11.1103516v-54.9812775H590.59375v23.9829712l3.5076904-5.9328003l10.2376099-18.0501709
	h13.5942993l-15.7509155,24.1676025l16.0110474,30.8136749H605.010376L594.9741211,259.4326477z M650.6603394,256.8648376
	h-17.2865601v14.5760803h20.4585571v9.2138977h-31.5689087v-54.9812775h31.50177v9.247467h-20.3914185v12.9900818h17.2865601
	V256.8648376z M630.2521362,331.9354553H484.5164795v6.4446716h145.7356567V331.9354553z M424.4079895,427.9009399v-42.7632141
	h10.0698242c4.6488953,0,8.3160095,1.48526,11.0180664,4.4475098c2.7020874,2.9706116,4.0950623,7.057251,4.1705933,12.2684021
	v8.9537659c0,5.3621826-1.3677979,9.5579224-4.0950623,12.5705261c-2.7356262,3.0125122-6.5621643,4.5230103-11.4963684,4.5230103
	H424.4079895z M427.7561951,388.3097229v36.4779663h6.4866638c3.8265076,0,6.7803345-1.183197,8.8782349-3.5412598
	c2.0894775-2.3580017,3.1719971-5.7314148,3.2223206-10.1117859v-8.9621277c0-4.3887939-1.0153503-7.7957153-3.0628967-10.2208862
	c-2.0475159-2.4251404-5.0097351-3.6419067-8.8866272-3.6419067H427.7561951z M487.6465149,407.4255981H471.056488v17.3620911
	h19.0906982v3.1132507H467.708252v-42.7632141h22.2879028v3.1719971H471.056488v16.0110474h16.5900269V407.4255981z
	 M526.7174683,417.386322c0-2.391571-0.6796875-4.2712402-2.0391235-5.6390686
	c-1.359436-1.3678589-3.9020996-2.6853027-7.6279297-3.9356689c-3.7174072-1.2503052-6.4446716-2.6517029-8.1901245-4.1957397
	c-2.290863-2.0223694-3.4405212-4.6824951-3.4405212-7.988739c0-3.2726746,1.1328735-5.9411926,3.3817749-7.988739
	c2.2489319-2.0643005,5.1607971-3.0880737,8.7187805-3.0880737c3.6419678,0,6.6209106,1.1916199,8.9285889,3.5831909
	c2.3161011,2.391571,3.4741211,5.4628906,3.4741211,9.22229h-3.3817749c0-2.8782959-0.805603-5.2027283-2.4251709-6.9733582
	c-1.611145-1.7705994-3.8097534-2.6601257-6.5957642-2.6601257c-2.7020264,0-4.8250732,0.730072-6.3859253,2.1901855
	c-1.5524292,1.460144-2.3328552,3.3398743-2.3328552,5.6474915c0,2.1566467,0.730072,3.9188843,2.2070007,5.2866821
	c1.460144,1.3761902,3.8013306,2.5929871,7.0153198,3.6586914c3.2139282,1.0657349,5.6390991,2.1734314,7.2838135,3.3230591
	c1.6447754,1.1412354,2.8615112,2.4922791,3.6419678,4.0363159c0.7803955,1.5440369,1.1748047,3.3649902,1.1748047,5.4628906
	c0,3.3482056-1.1328735,6.0419006-3.3901978,8.089447c-2.265686,2.0475159-5.2531128,3.0712585-8.9789429,3.0712585
	c-2.5006714,0-4.7915649-0.5118713-6.8558655-1.5440063c-2.0643005-1.0238037-3.6754761-2.5006714-4.8419189-4.4307556
	c-1.1664124-1.9300537-1.7454224-4.2041626-1.7454224-6.8306885h3.3398132c0,3.0125732,0.9146729,5.3873901,2.7356262,7.1076355
	s4.2796936,2.5845642,7.3677673,2.5845642c2.7020874,0,4.8754883-0.7216492,6.5118408-2.1733704
	C525.9035034,421.749939,526.7174683,419.8114929,526.7174683,417.386322z M550.7172241,427.9009399h-3.3398438v-42.7632141
	h3.3398438V427.9009399z M596.5097656,422.933136c-1.4265137,1.8461609-3.22229,3.2307434-5.4041138,4.1622314
	c-2.164978,0.931427-4.5482178,1.3929443-7.1328125,1.3929443c-4.3887329,0-7.8292847-1.4685059-10.3383179-4.4055176
	c-2.5090942-2.9370422-3.8097534-7.0069275-3.9104614-12.2180786v-10.3970642c0-5.4629211,1.1915894-9.6502991,3.5747681-12.5537415
	c2.3748169-2.9118652,5.7733765-4.3636169,10.1705322-4.3636169c3.9440308,0,7.0237427,1.0909119,9.2558594,3.2559204
	c2.2321167,2.1818237,3.4824829,5.3118286,3.7593994,9.3984985h-3.3482056
	c-0.352478-3.2894592-1.3175049-5.6894226-2.8950806-7.208313c-1.5776367-1.5188599-3.8181763-2.2741089-6.7384033-2.2741089
	c-3.4824829,0-6.0922241,1.15802-7.8292847,3.4825134c-1.7286377,2.31604-2.5929565,5.7229919-2.5929565,10.2041016v9.8684082
	c0,4.4642639,0.9481812,7.9299927,2.8615112,10.3971252c1.9048462,2.4670715,4.5817261,3.7006226,8.0306396,3.7006226
	c3.7426147,0,6.7971191-1.183197,9.1635742-3.5496216v-11.1355286h-9.3649292v-3.1468201h12.7382812V422.933136z
	 M642.0673828,427.9009399h-3.3482056l-20.1816406-36.41922v36.41922h-3.3733521v-42.7632141h3.3733521l20.2067871,36.4779663
	v-36.4779663h3.3230591V427.9009399z"/>
</svg>
