<?xml version="1.0" standalone="no"?>
<!DOCTYPE svg PUBLIC "-//W3C//DTD SVG 20010904//EN"
 "http://www.w3.org/TR/2001/REC-SVG-20010904/DTD/svg10.dtd">
<svg version="1.0" xmlns="http://www.w3.org/2000/svg"
 width="324.000000pt" height="324.000000pt" viewBox="0 0 324.000000 324.000000"
 preserveAspectRatio="xMidYMid meet">
<metadata>
Created by potrace 1.11, written by Peter Selinger 2001-2013
</metadata>
<g transform="translate(0.000000,324.000000) scale(0.100000,-0.100000)"
fill="#000000" stroke="none">
<path d="M552 3212 c-95 -36 -185 -135 -212 -232 -17 -61 -11 -157 31 -485
l41 -320 -31 -100 c-57 -185 -65 -261 -65 -665 -1 -416 1 -431 82 -521 38 -42
41 -50 32 -74 -15 -40 -12 -122 6 -156 11 -22 34 -39 77 -59 115 -52 283 -75
640 -86 120 -4 216 -10 214 -13 -74 -133 -38 -269 87 -327 79 -37 153 -28 221
28 84 70 104 198 44 281 l-20 27 93 0 c154 0 465 19 569 35 132 19 253 60 294
99 40 39 53 112 31 177 l-15 42 35 41 c21 25 43 68 57 111 21 66 22 88 22 375
0 377 -19 515 -96 709 l-29 73 45 355 c44 346 46 385 23 463 -14 46 -81 141
-119 169 -124 92 -297 97 -405 12 -14 -11 -119 -127 -234 -257 l-209 -237
-227 1 c-125 1 -230 5 -234 9 -51 60 -339 384 -385 432 -81 86 -135 111 -240
110 -49 0 -97 -7 -123 -17z m220 -75 c37 -17 87 -67 240 -241 106 -121 192
-222 191 -225 -2 -3 -16 -6 -31 -6 -25 0 -53 27 -192 185 -90 102 -174 193
-186 203 -50 39 -148 59 -172 35 -27 -27 1 -68 46 -68 46 0 84 -33 237 -205
113 -128 145 -169 134 -176 -8 -5 -18 -9 -24 -9 -5 0 -48 -12 -94 -27 l-84
-26 -76 83 c-71 76 -78 82 -99 71 -36 -19 -26 -50 38 -121 l59 -68 -57 -37
c-89 -60 -140 -105 -188 -169 -24 -33 -44 -55 -44 -49 0 6 -16 134 -35 284
-19 151 -35 292 -35 315 0 69 29 134 85 190 83 83 192 106 287 61z m1713 6
c99 -33 176 -146 177 -257 0 -55 -54 -517 -67 -574 -5 -21 -12 -17 -74 50 -38
40 -103 95 -144 122 l-76 50 64 72 c67 75 79 106 46 124 -28 14 -38 7 -115
-81 -38 -44 -74 -77 -80 -75 -9 4 -130 42 -194 62 -18 5 273 336 319 363 20
12 47 21 59 21 50 0 77 39 48 68 -29 29 -122 4 -182 -49 -23 -20 -111 -115
-195 -211 -148 -169 -153 -174 -186 -170 l-35 4 23 27 c117 139 374 423 394
436 57 38 141 45 218 18z m-635 -553 c511 -83 761 -320 836 -790 8 -54 17
-202 21 -345 9 -387 -11 -479 -117 -542 -67 -41 -132 -60 -274 -81 -94 -14
-212 -16 -761 -17 -668 0 -770 5 -925 42 -128 31 -198 83 -227 167 -16 45 -18
90 -17 381 0 340 7 419 45 575 109 441 475 638 1159 625 107 -2 224 -9 260
-15z m760 -1834 l0 -53 -57 -26 c-106 -46 -227 -63 -530 -77 -433 -20 -1082
-7 -1292 25 -185 28 -241 55 -241 119 0 50 19 61 77 43 64 -21 136 -34 268
-49 156 -18 1233 -18 1405 0 131 14 288 44 318 61 40 24 52 14 52 -43z m-973
-300 c28 -30 33 -43 33 -84 0 -121 -128 -183 -219 -106 -56 47 -61 136 -9 191
32 35 56 43 112 39 42 -3 55 -9 83 -40z"/>
<path d="M1260 1945 c-14 -17 -5 -353 12 -420 7 -31 27 -57 86 -114 42 -40 92
-80 110 -87 30 -13 32 -17 32 -65 0 -42 -5 -55 -28 -79 -70 -70 -222 -32 -222
55 0 23 -28 55 -48 55 -6 0 -17 -9 -25 -21 -15 -21 -11 -65 11 -104 30 -57
116 -105 186 -105 47 0 120 28 146 55 l22 24 37 -28 c92 -72 208 -67 287 13
27 26 46 57 54 85 10 40 10 46 -9 65 -28 27 -51 13 -69 -40 -17 -51 -37 -72
-83 -85 -51 -16 -106 -3 -141 31 -23 24 -28 37 -28 79 0 41 3 51 20 56 38 12
187 143 204 180 13 27 19 82 26 232 9 204 6 233 -29 233 -38 0 -45 -25 -52
-213 -5 -100 -11 -192 -14 -205 l-6 -23 -32 27 c-47 40 -106 64 -158 64 -53 0
-139 -39 -168 -76 l-19 -25 -10 33 c-6 18 -13 113 -16 212 -3 111 -10 184 -17
192 -15 18 -43 18 -59 -1z m371 -442 c27 -16 49 -31 49 -34 0 -4 -21 -23 -47
-43 -66 -51 -115 -51 -177 3 l-46 40 53 30 c65 38 105 39 168 4z"/>
<path d="M893 1890 c-24 -5 -59 -17 -80 -27 -84 -39 -155 -149 -123 -188 21
-25 53 -14 72 26 22 48 79 96 123 105 19 3 64 4 99 2 76 -5 121 -34 158 -100
37 -69 98 -58 83 14 -10 45 -108 140 -160 155 -61 18 -126 22 -172 13z"/>
<path d="M2073 1890 c-87 -18 -167 -79 -198 -153 -19 -46 -7 -77 31 -77 20 0
28 8 41 38 34 84 92 116 203 110 93 -4 136 -29 176 -101 22 -41 30 -48 52 -45
40 5 41 50 3 110 -37 58 -93 97 -168 114 -64 15 -79 16 -140 4z"/>
<path d="M1358 995 c-10 -23 -8 -29 23 -61 87 -92 225 -99 312 -16 41 39 50
58 37 82 -15 27 -42 25 -71 -6 -68 -72 -160 -72 -228 0 -31 33 -58 33 -73 1z"/>
</g>
</svg>
