<svg id="Ebene_1" data-name="Ebene 1" xmlns="http://www.w3.org/2000/svg" viewBox="0 0 42.05 42.05"><defs><style>.cls-1{fill:#9d9c9c;}</style></defs><path class="cls-1" d="M21,10.41A10.62,10.62,0,1,0,31.64,21,10.63,10.63,0,0,0,21,10.41ZM28.54,21A7.51,7.51,0,1,1,21,13.52,7.52,7.52,0,0,1,28.54,21Z"/><path class="cls-1" d="M32.45,7.41A2.2,2.2,0,1,0,34.64,9.6,2.19,2.19,0,0,0,32.45,7.41Z"/><path class="cls-1" d="M41.93,12.22a15.93,15.93,0,0,0-1-5.08,10.15,10.15,0,0,0-2.39-3.66A10.08,10.08,0,0,0,34.91,1.1a15.35,15.35,0,0,0-5.08-1C27.56,0,26.81,0,21,0s-6.54,0-8.81.13a15.4,15.4,0,0,0-5.08,1A10.25,10.25,0,0,0,3.48,3.48,10.12,10.12,0,0,0,1.1,7.14a15.4,15.4,0,0,0-1,5.08C0,14.5,0,15.25,0,21s0,6.53.13,8.8a15.35,15.35,0,0,0,1,5.08,10.08,10.08,0,0,0,2.38,3.66A10.28,10.28,0,0,0,7.14,41a15.93,15.93,0,0,0,5.08,1c2.28.1,3,.12,8.81.12s6.53,0,8.8-.12a15.88,15.88,0,0,0,5.08-1A10.64,10.64,0,0,0,41,34.91a15.88,15.88,0,0,0,1-5.08c.1-2.27.12-3,.12-8.8S42,14.5,41.93,12.22ZM39,21c0,5.73,0,6.41-.13,8.66a12.21,12.21,0,0,1-.76,4.1,7.39,7.39,0,0,1-4.28,4.27,12,12,0,0,1-4.09.76c-2.26.11-2.94.13-8.66.13s-6.41,0-8.67-.13a12.08,12.08,0,0,1-4.09-.76,7.11,7.11,0,0,1-2.59-1.68A7.22,7.22,0,0,1,4,33.79a12.48,12.48,0,0,1-.76-4.1c-.1-2.26-.12-2.94-.12-8.66s0-6.41.12-8.67A12.34,12.34,0,0,1,4,8.27,7.14,7.14,0,0,1,5.68,5.68,7.14,7.14,0,0,1,8.27,4a12.34,12.34,0,0,1,4.09-.76c2.27-.1,3-.12,8.67-.12s6.39,0,8.66.12a12.48,12.48,0,0,1,4.1.76,7.22,7.22,0,0,1,2.59,1.69,7.11,7.11,0,0,1,1.68,2.59,12.08,12.08,0,0,1,.76,4.09C38.93,14.62,39,15.3,39,21Z"/></svg>