<svg id="Ebene_1" data-name="Ebene 1" xmlns="http://www.w3.org/2000/svg" viewBox="0 0 48.92 30.51"><defs><style>.cls-1{fill:#9d9c9c;}</style></defs><path class="cls-1" d="M48.89,29.45v0s0-.06,0-.08v0a.28.28,0,0,1,0-.09h0V1.29a.22.22,0,0,1,0-.08v0s0-.06,0-.09v0l0-.1s0,0,0,0V.86l0,0,0-.05,0,0a.41.41,0,0,0,0-.09h0L48.64.54l0,0,0-.06,0,0L48.48.38h0L48.38.3l0,0-.06,0,0,0L48.2.2l0,0-.1,0h0L48,.12H47.7L1.22,0h0A1.22,1.22,0,0,0,.08.79,1.18,1.18,0,0,0,0,1.31H0V29.2H0a1.18,1.18,0,0,0,.08.52,1.23,1.23,0,0,0,1.14.79h0l46.44-.09H48l.07,0h0l.1,0a.05.05,0,0,1,0,0l0,0,0,0,.06,0,0,0,.09-.06h0l.06-.06,0,0,0-.06,0,0,.06-.07h0a.41.41,0,0,0,0-.09.08.08,0,0,0,0,0l0-.06s0,0,0,0v-.06s0,0,0,0ZM2.45,4l12.7,11.3L2.45,26.56ZM24.39,20.19,4.54,2.53H44.45ZM4.54,28,17,16.93l6.62,5.9a1.22,1.22,0,0,0,1.62,0l6.71-5.9L44.45,28ZM33.7,15.25,46.47,4V26.49Z"/></svg>