<?xml version="1.0" encoding="utf-8"?>
<!-- Generator: Adobe Illustrator 24.1.0, SVG Export Plug-In . SVG Version: 6.00 Build 0)  -->
<svg version="1.1" id="Ebene_1" xmlns="http://www.w3.org/2000/svg" xmlns:xlink="http://www.w3.org/1999/xlink" x="0px" y="0px"
	 viewBox="0 0 50 50" style="enable-background:new 0 0 50 50;" xml:space="preserve">
<style type="text/css">
	.st0{fill:#9D9C9C;}
</style>
<g>
	<path class="st0" d="M22.98,17.36l-4.23-8.45c-0.23-0.45-0.69-0.74-1.2-0.74H9.1c-0.46,0-0.9,0.24-1.14,0.63
		C7.71,9.2,7.69,9.69,7.9,10.11l3.9,7.81L3.71,32.08c-0.24,0.41-0.24,0.93,0,1.34c0.24,0.41,0.69,0.67,1.16,0.67h8.45
		c0.48,0,0.93-0.26,1.17-0.68l8.45-14.79C23.17,18.23,23.18,17.76,22.98,17.36z M7.19,31.4l7.3-12.77c0.22-0.4,0.23-0.87,0.03-1.27
		l-3.25-6.5h5.44l3.53,7.07l-7.7,13.48H7.19z"/>
	<path class="st0" d="M46.16,1.07c-0.24-0.4-0.68-0.65-1.15-0.65h-8.45c-0.5,0-0.95,0.27-1.18,0.71L20.6,28.59
		c-0.22,0.41-0.22,0.89,0.01,1.29l10.56,19.02c0.24,0.42,0.69,0.68,1.18,0.68h8.45c0.48,0,0.92-0.26,1.15-0.67
		c0.24-0.41,0.25-0.92,0.02-1.33l-10.2-18.37L46.19,2.4C46.42,1.99,46.41,1.48,46.16,1.07z M33.13,46.89l-9.82-17.67l14.05-26.1h5.4
		L29.04,28.59c-0.22,0.41-0.21,0.89,0.01,1.29l9.45,17.01H33.13z"/>
</g>
</svg>
