<?xml version="1.0" encoding="utf-8"?>
<!-- Generator: Adobe Illustrator 24.1.0, SVG Export Plug-In . SVG Version: 6.00 Build 0)  -->
<svg version="1.1" id="Ebene_1" xmlns="http://www.w3.org/2000/svg" xmlns:xlink="http://www.w3.org/1999/xlink" x="0px" y="0px"
	 viewBox="0 0 50 50" style="enable-background:new 0 0 50 50;" xml:space="preserve">
<style type="text/css">
	.st0{fill:#9D9C9C;}
</style>
<g>
	<path class="st0" d="M25.47,14.38c-5.85,0-10.62,4.76-10.62,10.62s4.76,10.62,10.62,10.62S36.09,30.85,36.09,25
		S31.33,14.38,25.47,14.38z M32.98,25c0,4.14-3.37,7.51-7.51,7.51c-4.14,0-7.51-3.37-7.51-7.51s3.37-7.51,7.51-7.51
		C29.61,17.49,32.98,20.86,32.98,25z"/>
	<path class="st0" d="M36.9,11.38c-1.21,0-2.19,0.98-2.19,2.19s0.98,2.19,2.19,2.19c1.21,0,2.19-0.98,2.19-2.19
		S38.11,11.38,36.9,11.38z"/>
	<path class="st0" d="M46.37,16.19c-0.09-2.02-0.39-3.59-0.97-5.08c-0.56-1.45-1.3-2.57-2.38-3.66c-1.09-1.09-2.22-1.82-3.66-2.38
		c-1.49-0.58-3.05-0.88-5.08-0.97c-2.27-0.1-3.03-0.13-8.81-0.13S18.94,4,16.67,4.1c-2.02,0.09-3.59,0.39-5.08,0.97
		c-1.45,0.56-2.57,1.3-3.66,2.38C6.84,8.54,6.1,9.67,5.54,11.12c-0.58,1.49-0.88,3.05-0.97,5.08c-0.1,2.29-0.13,3.04-0.13,8.81
		s0.02,6.52,0.13,8.81c0.09,2.02,0.39,3.59,0.97,5.08c0.56,1.45,1.3,2.58,2.38,3.66c1.09,1.09,2.22,1.82,3.66,2.38
		c1.49,0.58,3.05,0.88,5.08,0.97c2.28,0.1,3.03,0.13,8.81,0.13S32,46,34.28,45.9c2.02-0.09,3.59-0.39,5.08-0.97
		c1.44-0.56,2.57-1.3,3.66-2.38c1.09-1.09,1.82-2.22,2.38-3.66c0.58-1.49,0.88-3.05,0.97-5.08c0.1-2.28,0.13-3.03,0.13-8.81
		C46.5,19.23,46.47,18.47,46.37,16.19z M43.39,25c0,5.72-0.02,6.4-0.12,8.67c-0.1,2.14-0.46,3.31-0.76,4.09
		c-0.4,1.04-0.91,1.81-1.69,2.59c-0.78,0.78-1.55,1.28-2.59,1.69c-0.78,0.3-1.95,0.67-4.09,0.76c-2.26,0.1-2.94,0.12-8.67,0.12
		s-6.41-0.02-8.67-0.12c-2.14-0.1-3.31-0.46-4.09-0.76c-1.04-0.4-1.81-0.91-2.59-1.69c-0.78-0.78-1.28-1.55-1.69-2.59
		c-0.3-0.78-0.66-1.95-0.76-4.09C7.57,31.4,7.55,30.72,7.55,25s0.02-6.4,0.12-8.67c0.1-2.14,0.46-3.31,0.76-4.09
		c0.4-1.04,0.91-1.81,1.69-2.59c0.78-0.78,1.55-1.28,2.59-1.69c0.78-0.3,1.95-0.67,4.09-0.76c2.27-0.1,2.95-0.13,8.67-0.13
		s6.39,0.02,8.67,0.13c2.14,0.1,3.31,0.46,4.09,0.76c1.04,0.4,1.81,0.91,2.59,1.69c0.78,0.78,1.28,1.55,1.69,2.59
		c0.3,0.78,0.66,1.95,0.76,4.09C43.37,18.6,43.39,19.28,43.39,25z"/>
</g>
</svg>
