<?xml version="1.0" encoding="utf-8"?>
<!-- Generator: Adobe Illustrator 24.1.0, SVG Export Plug-In . SVG Version: 6.00 Build 0)  -->
<svg version="1.1" id="Ebene_1" xmlns="http://www.w3.org/2000/svg" xmlns:xlink="http://www.w3.org/1999/xlink" x="0px" y="0px"
	 viewBox="0 0 50 50" style="enable-background:new 0 0 50 50;" xml:space="preserve">
<style type="text/css">
	.st0{fill:#9D9C9C;}
</style>
<path class="st0" d="M49.43,39.2c0-0.01,0-0.02,0.01-0.03c0.01-0.03,0.01-0.06,0.01-0.09c0-0.01,0-0.02,0-0.03c0-0.03,0-0.06,0-0.09
	c0-0.01,0-0.01,0-0.02V11.06c0-0.01,0-0.01,0-0.02c0-0.03,0-0.06,0-0.09c0-0.01,0-0.02,0-0.03c0-0.03-0.01-0.06-0.01-0.09
	c0-0.01,0-0.02,0-0.03c-0.01-0.03-0.02-0.06-0.02-0.1c0-0.02-0.01-0.03-0.02-0.05c0-0.01-0.01-0.02-0.01-0.03
	c0-0.01-0.01-0.01-0.01-0.02c-0.01-0.02-0.01-0.03-0.02-0.05c-0.01-0.02-0.02-0.04-0.03-0.06c-0.01-0.01-0.01-0.03-0.02-0.04
	c-0.02-0.03-0.03-0.06-0.05-0.09c0,0-0.01-0.01-0.01-0.01c-0.02-0.03-0.04-0.05-0.06-0.07c-0.01-0.01-0.01-0.02-0.02-0.02
	c-0.02-0.02-0.03-0.04-0.05-0.06c-0.01-0.01-0.02-0.02-0.02-0.02c-0.02-0.02-0.04-0.04-0.06-0.06c-0.01-0.01-0.01-0.01-0.02-0.02
	c-0.03-0.02-0.05-0.04-0.08-0.06c-0.01-0.01-0.02-0.01-0.03-0.02c-0.02-0.01-0.04-0.03-0.06-0.04c-0.01-0.01-0.03-0.01-0.04-0.02
	c-0.02-0.01-0.04-0.02-0.06-0.03c-0.01-0.01-0.03-0.01-0.04-0.02c-0.03-0.01-0.06-0.02-0.09-0.03c-0.01,0-0.02-0.01-0.03-0.01
	c-0.02-0.01-0.05-0.01-0.07-0.02c-0.01,0-0.03-0.01-0.04-0.01c-0.02,0-0.05-0.01-0.07-0.01c-0.01,0-0.02,0-0.04,0
	c-0.04,0-0.07-0.01-0.11-0.01L1.77,9.75c0,0,0,0,0,0c-0.51,0-0.96,0.31-1.14,0.79c-0.07,0.17-0.09,0.35-0.08,0.52c0,0,0,0,0,0v27.88
	c0,0,0,0,0,0c-0.01,0.17,0.01,0.35,0.08,0.52c0.18,0.47,0.64,0.79,1.14,0.79c0,0,0,0,0,0l46.44-0.09h0.03c0,0,0,0,0,0h0
	c0.04,0,0.07,0,0.11-0.01c0.01,0,0.03,0,0.04,0c0.02,0,0.05-0.01,0.07-0.01c0.01,0,0.03-0.01,0.04-0.01
	c0.02-0.01,0.05-0.01,0.07-0.02c0.01,0,0.03-0.01,0.04-0.01c0.03-0.01,0.06-0.02,0.09-0.03c0.01-0.01,0.03-0.01,0.04-0.02
	c0.02-0.01,0.04-0.02,0.05-0.03c0.01-0.01,0.03-0.01,0.04-0.02c0.02-0.01,0.04-0.02,0.06-0.03c0.01-0.01,0.02-0.01,0.03-0.02
	c0.03-0.02,0.06-0.04,0.08-0.06c0.01-0.01,0.01-0.01,0.02-0.02c0.02-0.02,0.04-0.04,0.06-0.05c0.01-0.01,0.02-0.02,0.03-0.03
	c0.02-0.02,0.03-0.04,0.05-0.05c0.01-0.01,0.02-0.02,0.02-0.03c0.02-0.02,0.04-0.05,0.05-0.07c0-0.01,0.01-0.01,0.01-0.02
	c0.02-0.03,0.04-0.06,0.05-0.09c0.01-0.01,0.01-0.03,0.02-0.04c0.01-0.02,0.02-0.04,0.03-0.05c0.01-0.02,0.01-0.03,0.02-0.05
	c0-0.01,0.01-0.01,0.01-0.02c0-0.01,0.01-0.02,0.01-0.03c0.01-0.02,0.01-0.03,0.02-0.05C49.42,39.26,49.42,39.23,49.43,39.2z
	 M2.99,13.7L15.7,25L2.99,36.3V13.7z M24.93,29.94L5.08,12.28h39.92L24.93,29.94z M5.08,37.72l12.41-11.04l6.63,5.89
	c0.46,0.41,1.16,0.41,1.62,0l6.71-5.9l12.55,11.04H5.08z M34.24,25l12.77-11.24v22.47L34.24,25z"/>
</svg>
