<svg id="Ebene_1" data-name="Ebene 1" xmlns="http://www.w3.org/2000/svg" viewBox="0 0 42.82 49.15"><defs><style>.cls-1{fill:#9d9c9c;}</style></defs><path class="cls-1" d="M19.44,16.93,15.22,8.48A1.34,1.34,0,0,0,14,7.75H5.57a1.35,1.35,0,0,0-1.14.63,1.33,1.33,0,0,0-.06,1.31l3.9,7.81L.18,31.65A1.36,1.36,0,0,0,.18,33a1.35,1.35,0,0,0,1.16.66H9.79A1.33,1.33,0,0,0,11,33L19.41,18.2A1.36,1.36,0,0,0,19.44,16.93ZM11,18.2a1.34,1.34,0,0,0,0-1.26L7.74,10.43h5.45l3.53,7.07L9,31H3.66Z"/><path class="cls-1" d="M42.63.65A1.35,1.35,0,0,0,41.47,0H33a1.32,1.32,0,0,0-1.18.71L17.06,28.16a1.34,1.34,0,0,0,0,1.29l10.56,19a1.36,1.36,0,0,0,1.18.68h8.44a1.34,1.34,0,0,0,1.16-.67,1.37,1.37,0,0,0,0-1.33L28.22,28.78,42.66,2A1.37,1.37,0,0,0,42.63.65ZM25.52,29.45l9.45,17H29.6L19.77,28.79,33.83,2.69h5.4L25.51,28.17A1.3,1.3,0,0,0,25.52,29.45Z"/></svg>