<?xml version="1.0" encoding="utf-8"?>
<!-- Generator: Adobe Illustrator 18.0.0, SVG Export Plug-In . SVG Version: 6.00 Build 0)  -->
<!DOCTYPE svg PUBLIC "-//W3C//DTD SVG 1.1//EN" "http://www.w3.org/Graphics/SVG/1.1/DTD/svg11.dtd">
<svg version="1.1" id="Ebene_1" xmlns="http://www.w3.org/2000/svg" xmlns:xlink="http://www.w3.org/1999/xlink" x="0px" y="0px"
	 viewBox="0 0 336.629303 148.6216431" enable-background="new 0 0 336.629303 148.6216431" xml:space="preserve">
<g>
	<path fill="#3C3C3B" d="M213.7882233,51.2906914c-0.3649445-0.22089-0.5954285-0.5207443-0.6936035-0.8984947
		c-0.098175-0.3788185-0.0256195-0.7672424,0.2155457-1.1652718c0.2368927-0.3937569,0.54422-0.640255,0.9155731-0.7394981
		c0.3713531-0.0992393,0.7448273-0.0416145,1.1161804,0.1750069l0.2368927,0.141922
		c0.3713531,0.2262268,0.6039886,0.5271454,0.6914825,0.9027634c0.0896301,0.375618,0.0149384,0.7629738-0.2262268,1.1610031
		c-0.2347565,0.3862877-0.5378113,0.6306534-0.9113007,0.732029c-0.3734741,0.1003036-0.742691,0.0448151-1.1097717-0.1664696
		L213.7882233,51.2906914z M226.9604645,37.4205704l-3.2631836,2.9483871l2.4842072,2.7509766l3.8628845-3.4894066
		l1.5707703,1.7383003l-5.9565277,5.3824348l-9.3755188-10.3764458l5.9437256-5.3685646l1.577179,1.7457695l-3.8479462,3.4766006
		l2.2152863,2.4511223l3.2631836-2.9483871L226.9604645,37.4205704z M235.5954132,36.3545418l4.4071045-2.2665138
		l1.0713654,2.0840378l-6.9190521,3.5577011l-6.3919067-12.4370098l2.5098114-1.2901211L235.5954132,36.3545418z
		 M246.9792023,34.535141l-2.7274933,0.7288284l-3.6110687-13.5094452l2.7275085-0.7288265L246.9792023,34.535141z
		 M256.4827576,29.7833595c-0.0191956-0.5698299-0.1813965-0.9945335-0.4823303-1.2751808
		c-0.3030396-0.2806454-0.8430023-0.563427-1.6219788-0.8494091c-1.4213715-0.4801922-2.450058-1.0649624-3.0903168-1.7564411
		c-0.6402588-0.6914768-0.9795837-1.5227451-1.0137329-2.4959373c-0.0426941-1.1770077,0.3393402-2.1373959,1.1481934-2.8811607
		c0.8088531-0.7437668,1.8567505-1.1396599,3.1436615-1.185545c0.8579559-0.0320129,1.6283875,0.1216488,2.3134766,0.4588509
		c0.6850586,0.337204,1.2207642,0.8280678,1.6049194,1.4736614c0.386261,0.6466599,0.5932922,1.3882923,0.6253052,2.2259636
		l-2.8128662,0.1024399c-0.023468-0.6519947-0.1813965-1.1449947-0.4716492-1.47686
		c-0.2902527-0.3318672-0.6978912-0.4887314-1.2229004-0.4695225c-0.4929962,0.0181389-0.872879,0.1771374-1.1353912,0.4780579
		c-0.2646332,0.3019886-0.3884277,0.6989479-0.3713531,1.1908798c0.0149384,0.3841553,0.1814117,0.725626,0.4994049,1.0244141
		c0.3179932,0.2998543,0.872879,0.601841,1.6668091,0.9059639c1.3808136,0.4428463,2.3924408,1.0116081,3.0369415,1.7052212
		c0.642395,0.6946793,0.9838867,1.5953083,1.0244141,2.7018871c0.0448303,1.2154236-0.307312,2.1800785-1.056427,2.8929005
		c-0.7512207,0.7128181-1.7905884,1.0927048-3.1201782,1.1417923c-0.902771,0.0330811-1.7329712-0.122715-2.4884644-0.4673882
		c-0.7555084-0.343605-1.3552246-0.8536758-1.7991333-1.52915c-0.4439087-0.6765385-0.6829376-1.4843311-0.7170868-2.4244423
		l2.8299408-0.103508c0.0298767,0.8056564,0.207016,1.386158,0.5356903,1.7393665
		c0.3265228,0.3532085,0.8451385,0.5164757,1.5536804,0.4908638
		C256.0473938,31.3658638,256.5211792,30.8259125,256.4827576,29.7833595z M269.8812256,32.6314392l-3.7199097-0.9945335
		l-1.4619141,2.5717049l-2.885437-0.7715111l7.832489-12.380455l2.494873,0.666935l0.6381226,14.6448326l-2.913147-0.7789803
		L269.8812256,32.6314392z M267.3628845,29.5229874l2.5226135,0.6744061l0.0256042-5.1530094L267.3628845,29.5229874z
		 M275.1911011,37.6478615l7.5123596-11.7946186l3.6452026,2.3220024c1.2314148,0.7843151,1.9912109,1.6539993,2.2835999,2.6101189
		c0.2902222,0.9561176,0.0981445,1.962389-0.5762329,3.0209484c-0.382019,0.5997086-0.8430176,1.0308151-1.3808289,1.2943878
		c-0.5399475,0.2635727-1.1033936,0.3489418-1.6902771,0.2561035c0.4332275,0.4887314,0.646637,1.0521584,0.642395,1.6902809
		c-0.0042725,0.6391907-0.2198486,1.2933235-0.6466675,1.9623909c-0.7277527,1.1449966-1.5942383,1.8087311-2.5930481,1.9912033
		c-1.000946,0.1824722-2.0979004-0.1056442-3.2930603-0.8664818L275.1911011,37.6478615z M280.8381653,34.036808
		l-2.006134,3.1511345l1.5216675,0.9699898c0.4268494,0.27211,0.8366089,0.3457413,1.2250366,0.2219582
		c0.390564-0.122715,0.7405701-0.427906,1.0500183-0.9145012c0.674408-1.0574951,0.6359863-1.8450127-0.1130981-2.3604202
		L280.8381653,34.036808z M281.9436951,32.3038406l1.2378235,0.7885857
		c0.9347839,0.5954399,1.7095032,0.4097633,2.3262634-0.5570259c0.3393555-0.5346146,0.4759216-0.9870625,0.4076538-1.3562794
		c-0.0682983-0.3702812-0.3457642-0.7096176-0.8302307-1.0190754l-1.2634277-0.8045921L281.9436951,32.3038406z
		 M294.6229248,46.1846352l-2.9195862-3.2898598l-2.7723083,2.4607239l3.453125,3.8927689l-1.7521667,1.5558281l-5.329071-6.005619
		l10.461792-9.2805405l5.3141479,5.9917488l-1.7585754,1.561161l-3.4424438-3.8788948l-2.471405,2.1918144l2.9195862,3.2909279
		L294.6229248,46.1846352z M306.8049011,56.6539192l-1.4917908-3.1191254l-10.4916992,5.0164223l-1.2229004-2.5556946
		l10.4938354-5.0174904l-1.4661865-3.0668335l2.1213684-1.0148087l4.1809082,8.7427216L306.8049011,56.6539192z
		 M298.5647888,74.1916504l-0.3991089-2.7861862l5.9223938-0.8472748l-0.591156-4.1264648l-5.9223938,0.8483429
		l-0.3991089-2.7957916l13.8402405-1.9805336l0.4012451,2.7947273l-5.6001282,0.8013916l0.5911865,4.1264572l5.6000977-0.801384
		l0.3969727,2.7851181L298.5647888,74.1916504z M304.7902222,83.1189804
		c0.4183044,0.0811005,0.7405701,0.2817154,0.9625244,0.6018448c0.2240906,0.3211975,0.2923889,0.7106857,0.204895,1.1674042
		c-0.0875244,0.452446-0.2881165,0.78965-0.6018677,1.0126724c-0.3137207,0.2219543-0.6850586,0.2966537-1.1097717,0.2240906
		l-0.2688904-0.0522842c-0.4289856-0.0811005-0.749115-0.2827835-0.9646606-0.6050491
		c-0.2134399-0.3211975-0.2774658-0.7106857-0.1899414-1.1674042c0.0853577-0.4439087,0.2859802-0.7789764,0.5997009-1.003067
		s0.6808167-0.3009262,1.0969849-0.2294312L304.7902222,83.1189804z M233.1346893,118.1570969
		c0.1920776-0.3809509,0.4737854-0.6338577,0.8430023-0.7608414c0.3713531-0.1259155,0.7640533-0.0832291,1.1780853,0.1269836
		c0.4118958,0.2080841,0.6808014,0.494072,0.8067169,0.8568802c0.1280518,0.363884,0.098175,0.739502-0.0896301,1.1279221
		l-0.1237946,0.24543c-0.1963348,0.3884277-0.4801788,0.6413269-0.8472748,0.7587051
		c-0.3692017,0.1173859-0.7597656,0.0714951-1.1759338-0.1387177c-0.4033661-0.2048874-0.6701355-0.4887314-0.7981873-0.8536758
		c-0.1280518-0.363884-0.1024475-0.7362976,0.0811005-1.1172562L233.1346893,118.1570969z M248.5051422,116.4252014
		l2.7616577,0.5922394l-2.0296173,9.4651413c-0.2859802,1.3274689-0.8835602,2.3124008-1.7927246,2.9547958
		c-0.9113007,0.6434631-1.9485168,0.839798-3.1137848,0.5901031c-1.2506409-0.2678375-2.1448669-0.849411-2.6805573-1.7436371
		c-0.535675-0.8942261-0.6594543-2.0040054-0.3756104-3.3314743l2.7701874,0.594368
		c-0.2753143,1.2890549-0.0170746,2.0189514,0.7789764,2.189682c0.8003235,0.1718063,1.361618-0.4876633,1.6796112-1.9773254
		L248.5051422,116.4252014z M260.2090759,128.1910095l-3.8479614,0.1312561l-0.6509247,2.8854218l-2.985733,0.1013794
		l3.890625-14.1240921l2.5823669-0.0875015l4.8723755,13.8253021l-3.0134888,0.1024323L260.2090759,128.1910095z
		 M256.8946533,125.9490356l2.6101379-0.0885696l-1.4747314-4.9374542L256.8946533,125.9490356z M278.2003174,126.9883881
		l-2.680542,0.8600769l-1.82901-5.6961594l-3.9696045,1.2741165l1.8311462,5.6972198l-2.6890869,0.8632812l-4.2769165-13.3130875
		l2.6890869-0.8632812l1.7308044,5.3856354l3.9674683-1.2751846l-1.730835-5.3856354l2.6805725-0.861145L278.2003174,126.9883881z
		 M291.5689087,118.9905014l-2.3454895,1.5728989l-8.5410461-5.3130722l5.1135254,7.6147995l-2.345459,1.573967
		l-7.7940979-11.6100082l2.3454895-1.573967l8.553833,5.3162689l-5.1177673-7.6233368l2.3369141-1.5675659L291.5689087,118.9905014z
		 M294.3283997,108.6119156l0.3308105,1.7607117l3.0198975,2.6154556l-1.8482361,2.1341934l-10.5706482-9.1556931
		l1.8503418-2.1341934l4.6098633,3.9930801l-0.5549011-1.6625366l-1.7670898-4.9726715l2.2643738-2.6133194l2.0231934,7.0513763
		l8.5901489,2.053093l-2.196106,2.5343552L294.3283997,108.6119156z M302.4255371,94.7460632l-1.9954529,3.9194489
		l3.3037109,1.6817398l2.3625488-4.6386642l2.0872498,1.0638962l-3.6430664,7.1548843l-12.4615479-6.3460236l3.6366577-7.1378098
		l2.0957642,1.068161l-2.3540039,4.6215973l2.9451904,1.4992676l1.9954834-3.9194412L302.4255371,94.7460632z
		 M204.0221558,60.843338l10.6325531,2.2889252l-0.5378113,2.5044708c-0.2497101,1.1535339-0.8152618,1.9869385-1.6966858,2.5002136
		c-0.881424,0.5132675-1.9720001,0.6402588-3.2717133,0.3809509l-2.2281036-0.4801941
		c-1.3338776-0.2870483-2.3027954-0.8504791-2.9046326-1.6913452c-0.6039734-0.8398056-0.7747192-1.8738251-0.5100708-3.1009865
		L204.0221558,60.843338z M213.6879272,63.7949295l-9.0703278-1.9527855l-0.3478699,1.6145172
		c-0.2027435,0.9486504-0.0682983,1.7468376,0.4054871,2.3945656c0.4759369,0.6466599,1.2549133,1.094841,2.3433533,1.3445358
		l2.2281036,0.479126c1.0905609,0.2347641,1.9911957,0.163269,2.70401-0.2155533
		c0.7128296-0.3788147,1.1738129-1.0500183,1.3808289-2.0146713L213.6879272,63.7949295z M207.4069977,77.7738953
		l-0.0682983-4.2192993l-4.4135132,0.0714951l0.0789642,4.8542175l-0.7917786,0.0128098l-0.0917816-5.7057648l10.8737183-0.1760712
		l0.0917664,5.6684189l-0.8067169,0.0128021l-0.076828-4.8168716l-4.072052,0.0661545l0.0682983,4.2192993L207.4069977,77.7738953z
		 M206.3932495,88.2026291c0.5954437-0.1227188,1.0286865-0.3884201,1.2997284-0.7981873
		c0.2731781-0.408699,0.4695129-1.1097794,0.589035-2.1000443c0.1216431-0.991333,0.3307953-1.7436371,0.6253204-2.2569122
		c0.3841553-0.674408,0.9902649-1.0969772,1.8140564-1.2666397c0.8131256-0.1675415,1.5344849-0.0245438,2.1640778,0.4311066
		c0.6274567,0.4545822,1.0329437,1.1268539,1.2143555,2.0136108c0.1878052,0.9080963,0.0426788,1.710556-0.4332428,2.408432
		c-0.4759216,0.6978836-1.1823425,1.1439285-2.1192474,1.3370743l-0.1728821-0.8408737
		c0.7171021-0.1483231,1.2549133-0.4684525,1.6134491-0.9625168c0.358551-0.4930038,0.4652557-1.0863037,0.3222656-1.7788544
		c-0.1387177-0.6733398-0.4289703-1.1652679-0.872879-1.4789963c-0.4439087-0.3126602-0.9518585-0.4097595-1.5280914-0.2902451
		c-0.535675,0.1099091-0.9369049,0.3841553-1.2036743,0.8195267c-0.2667847,0.4364395-0.4503174,1.0820389-0.5506287,1.9367828
		c-0.100296,0.854744-0.2518311,1.5163422-0.4524384,1.9847946c-0.2006226,0.4684601-0.4738007,0.8398056-0.8173981,1.1140518
		c-0.3457489,0.2753143-0.7789917,0.4663239-1.3018646,0.5740967c-0.8344727,0.1718063-1.5643616,0.0288162-2.189682-0.4300385
		c-0.6253204-0.4577866-1.0329437-1.1503296-1.2250214-2.0765686c-0.1280518-0.6242523-0.1173859-1.2207565,0.0320129-1.7873917
		c0.1493835-0.5676956,0.435379-1.0457535,0.8558044-1.4352417c0.4204407-0.3894882,0.9561157-0.6509323,1.6113129-0.7864532
		l0.1707458,0.8344727c-0.751236,0.1547318-1.2933197,0.5036697-1.6283875,1.0457535
		c-0.337204,0.5420837-0.4247131,1.198349-0.2667847,1.9687958c0.1387329,0.6733398,0.4311066,1.1759415,0.8771515,1.508873
		C205.264267,88.2239685,205.7892761,88.3274765,206.3932495,88.2026291z M205.9600067,95.3244324l-0.3073273-0.7939224
		l10.1416931-3.9279785l0.3073273,0.7949829L205.9600067,95.3244324z M212.8939972,105.772377
		c-0.589035-0.0672302-1.1268463-0.2742462-1.6177063-0.6231842c-0.488739-0.3489456-0.9049072-0.8045959-1.2463684-1.3658829
		c-0.5805054-0.9518509-0.7192383-1.8951645-0.411911-2.8278122c0.305191-0.9337082,1.0180206-1.7553711,2.1363373-2.4660568
		l2.2558289-1.3765564c1.186615-0.7224197,2.2537231-1.0180054,3.1991577-0.8867569
		c0.9475861,0.1312561,1.7116241,0.6754761,2.2942657,1.6326599c0.5228729,0.854744,0.6936035,1.6678696,0.5186005,2.4404449
		c-0.1771393,0.772583-0.6914673,1.4597931-1.5451508,2.0605698l-0.4417725-0.7266922
		c0.6679993-0.512207,1.0606842-1.0393524,1.1823425-1.5825043c0.1216431-0.5431519-0.0128021-1.1321945-0.3990936-1.7649841
		c-0.4609833-0.757637-1.0585632-1.1706009-1.7905884-1.2399597c-0.7341614-0.0682983-1.5878448,0.1931381-2.5610352,0.7875137
		l-2.1427307,1.3061295c-0.9689178,0.5911713-1.5963745,1.2570343-1.8780975,1.9976044
		c-0.283844,0.7416306-0.1963348,1.4864655,0.2582397,2.2344971c0.4951324,0.8120575,1.1567383,1.3189316,1.9848022,1.5195465
		l2.418045-1.4736633l-1.239975-2.0338821l0.6829529-0.4161682l1.6860046,2.7680511L212.8939972,105.772377z
		 M220.3231354,115.9962234l-0.5997162-0.6039734l2.9579926-10.1672974l-6.5733185,6.5252991l-0.6061096-0.609314
		l7.7193756-7.6617508l0.6039734,0.6093063l-2.9622498,10.1833038l6.5839844-6.535965l0.5933075,0.5986404L220.3231354,115.9962234z
		 M256.4486084,144.9177399c-11.908783,0-22.6907349-3.8468781-31.6671448-7.6105347
		c-28.3314209-11.8767776-34.2623444-37.0709305-37.9096832-61.8574448
		c-2.4009705-16.3031044,3.9333191-33.8408356,16.1387787-44.6782684
		c14.6362915-12.9993706,31.2403107-25.0287495,53.4380493-25.0287495c13.6929932,0,26.9441833,3.9738674,38.3215942,11.49263
		c17.2570801,11.4051285,27.0743713,28.3250122,31.8314819,54.8637047
		c3.0817566,17.1834564-6.8529053,36.2450027-17.1759949,48.3533478
		C296.1723633,136.0010834,276.8621826,144.9177399,256.4486084,144.9177399z M256.4486084,7.3818011
		c-21.6492462,0-37.954483,11.8309002-52.3496094,24.6147156c-11.8020935,10.4810219-17.9293671,27.4435921-15.6052246,43.2142143
		c3.5790405,24.3233948,9.3776398,49.0373535,36.9194031,60.5854721c8.8270264,3.6996307,19.4190216,7.4824829,31.0354309,7.4824829
		c19.9333801,0,38.7868347-8.7075043,51.7307129-23.8890915c10.0798035-11.8234329,19.7882385-30.3802414,16.8088989-47.000267
		c-4.6717529-26.0617027-14.2713318-42.6497192-31.1229248-53.7859421
		C282.7589417,11.2617645,269.8193359,7.3818011,256.4486084,7.3818011z"/>
	<g>
		<path fill="#3C3C3B" d="M179.1348267,41.7978058c-14.9394531,0-22.5185547-4.0605469-29.8496094-7.987793
			c-7.4394531-3.9858398-14.4667969-7.7504883-28.9052658-7.7504883s-21.4658203,3.7646484-28.90625,7.7504883
			c-7.3305664,3.9272461-14.9106445,7.987793-29.851078,7.987793s-22.3857422-4.0605469-29.7163067-7.987793
			c-7.4404297-3.9858398-14.7714844-7.7504883-28.7714844-7.7504883v-2c15.000001,0,22.3852539,4.0605469,29.7158203,7.987793
			c7.4404297,3.9858398,14.4008789,7.7504883,28.8393555,7.7504883s21.432621-3.7646484,28.8730507-7.7504883
			c7.3305664-3.9272461,14.8933105-7.987793,29.8337402-7.987793s22.5111008,4.0605469,29.8421555,7.987793
			c7.4394531,3.9858398,14.458374,7.7504883,28.895874,7.7504883V41.7978058z"/>
		<path fill="#3C3C3B" d="M179.1348267,59.1098175c-14.9394531,0-22.5185547-4.0605469-29.8496094-7.987793
			c-7.4394531-3.9858398-14.4667969-7.7504883-28.9052658-7.7504883s-21.4658203,3.7646484-28.90625,7.7504883
			c-7.3305664,3.9272461-14.9106445,7.987793-29.851078,7.987793s-22.3857422-4.0605469-29.7163067-7.987793
			c-7.4404297-3.9858398-14.7714844-7.7504883-28.7714844-7.7504883v-2c15.000001,0,22.3852539,4.0605469,29.7158203,7.987793
			c7.4404297,3.9858398,14.4008789,7.7504883,28.8393555,7.7504883s21.432621-3.7646484,28.8730507-7.7504883
			c7.3305664-3.9272461,14.8933105-7.987793,29.8337402-7.987793s22.5111008,4.0605469,29.8421555,7.987793
			c7.4394531,3.9858398,14.458374,7.7504883,28.895874,7.7504883V59.1098175z"/>
		<path fill="#3C3C3B" d="M179.1348267,76.4223175c-14.9394531,0-22.5185547-4.0605469-29.8496094-7.987793
			c-7.4394531-3.9858398-14.4667969-7.7509766-28.9052658-7.7509766s-21.4658203,3.7646484-28.90625,7.7509766
			c-7.3305664,3.9267578-14.9106445,7.987793-29.851078,7.987793s-22.3857422-4.0610352-29.7163067-7.987793
			c-7.4404297-3.9863281-14.7714844-7.7509766-28.7714844-7.7509766v-2c15.000001,0,22.3852539,4.0605469,29.7158203,7.987793
			c7.4404297,3.9858398,14.4008789,7.7509766,28.8393555,7.7509766s21.432621-3.7651367,28.8730507-7.7509766
			c7.3305664-3.9272461,14.8933105-7.987793,29.8337402-7.987793s22.5111008,4.0610352,29.8421555,7.987793
			c7.4394531,3.9863281,14.458374,7.7509766,28.895874,7.7509766V76.4223175z"/>
		<path fill="#3C3C3B" d="M179.1348267,93.7343292c-14.9394531,0-22.5185547-4.0605469-29.8496094-7.987793
			c-7.4394531-3.9858398-14.4667969-7.7504883-28.9052658-7.7504883s-21.4658203,3.7646484-28.90625,7.7504883
			c-7.3305664,3.9272461-14.9106445,7.987793-29.851078,7.987793s-22.3857422-4.0605469-29.7163067-7.987793
			c-7.4404297-3.9858398-14.7714844-7.7504883-28.7714844-7.7504883v-2c15.000001,0,22.3852539,4.0605469,29.7158203,7.987793
			c7.4404297,3.9858398,14.4008789,7.7504883,28.8393555,7.7504883s21.432621-3.7646484,28.8730507-7.7504883
			c7.3305664-3.9272461,14.8933105-7.987793,29.8337402-7.987793s22.5111008,4.0605469,29.8421555,7.987793
			c7.4394531,3.9858398,14.458374,7.7504883,28.895874,7.7504883V93.7343292z"/>
		<path fill="#3C3C3B" d="M179.1348267,111.0468292c-14.9394531,0-22.5185547-4.0610352-29.8496094-7.9882812
			c-7.4394531-3.9858398-14.4667969-7.7504883-28.9052658-7.7504883s-21.4658203,3.7646484-28.90625,7.7504883
			c-7.3305664,3.9272461-14.9106445,7.9882812-29.851078,7.9882812s-22.3857422-4.0610352-29.7163067-7.9882812
			c-7.4404297-3.9858398-14.7714844-7.7504883-28.7714844-7.7504883v-2c15.000001,0,22.3852539,4.0605469,29.7158203,7.987793
			c7.4404297,3.9858398,14.4008789,7.7504883,28.8393555,7.7504883s21.432621-3.7646484,28.8730507-7.7504883
			c7.3305664-3.9272461,14.8933105-7.987793,29.8337402-7.987793s22.5111008,4.0605469,29.8421555,7.987793
			c7.4394531,3.9858398,14.458374,7.7504883,28.895874,7.7504883V111.0468292z"/>
	</g>
</g>
<g>
</g>
<g>
</g>
<g>
</g>
<g>
</g>
<g>
</g>
<g>
</g>
<g>
</g>
<g>
</g>
<g>
</g>
<g>
</g>
<g>
</g>
<g>
</g>
<g>
</g>
<g>
</g>
<g>
</g>
</svg>
