<?xml version="1.0" encoding="utf-8"?>
<!-- Generator: Adobe Illustrator 18.0.0, SVG Export Plug-In . SVG Version: 6.00 Build 0)  -->
<!DOCTYPE svg PUBLIC "-//W3C//DTD SVG 1.1//EN" "http://www.w3.org/Graphics/SVG/1.1/DTD/svg11.dtd">
<svg version="1.1" id="Ebene_1" xmlns="http://www.w3.org/2000/svg" xmlns:xlink="http://www.w3.org/1999/xlink" x="0px" y="0px"
	 viewBox="0 0 20.3587112 20.3587112" enable-background="new 0 0 20.3587112 20.3587112" xml:space="preserve">
<g id="PS_1_">
	<g opacity="0.3">
		<rect x="-0.0000036" y="0.0000071" fill="#FFFFFF" width="20.3587112" height="20.3587112"/>
	</g>
	<path fill="#FFFFFF" d="M19.1455231,1.2131763v17.932312H1.2131807V1.2131763H19.1455231 M20.3587036-0.0000196H0.0000002
		v20.3587036h20.3587036V-0.0000196L20.3587036-0.0000196z"/>
	<g>
		<path fill="#FFFFFF" d="M5.2614746,11.5668745l-0.7841797,2.5820312H2.76001l2.9204099-9.1113281h2.1225586l2.9604492,9.1113281
			H8.979248l-0.824707-2.5820312H5.2614746z M7.8703613,10.309062L7.1540527,8.0649214
			c-0.1757812-0.5527339-0.324707-1.1757808-0.4594727-1.7031245H6.6672363
			C6.5319824,6.8891406,6.3967285,7.5258594,6.2346191,8.0649214l-0.703125,2.2441406H7.8703613z"/>
		<path fill="#FFFFFF" d="M12.9714355,11.324687c0.0405273,1.1894531,0.9736328,1.703125,2.027832,1.703125
			c0.7705078,0,1.3251953-0.109375,1.8251953-0.2988281l0.2431641,1.1503906
			c-0.5673828,0.2285156-1.3515625,0.4042969-2.2978516,0.4042969c-2.1362305,0-3.3935547-1.3105469-3.3935547-3.3242188
			c0-1.8261719,1.1083984-3.5429683,3.2177734-3.5429683c2.1357422,0,2.8388672,1.757812,2.8388672,3.2050776
			c0,0.3105469-0.0268555,0.5527344-0.0541992,0.703125H12.9714355z M15.864502,10.1606245
			c0.0136719-0.6074219-0.2568359-1.6074219-1.3652344-1.6074219c-1.0273438,0-1.4599609,0.9316406-1.527832,1.6074219H15.864502z"
			/>
	</g>
</g>
</svg>
