<?xml version="1.0" encoding="utf-8"?>
<!-- Generator: Adobe Illustrator 18.0.0, SVG Export Plug-In . SVG Version: 6.00 Build 0)  -->
<!DOCTYPE svg PUBLIC "-//W3C//DTD SVG 1.1//EN" "http://www.w3.org/Graphics/SVG/1.1/DTD/svg11.dtd">
<svg version="1.1" id="Ebene_1" xmlns="http://www.w3.org/2000/svg" xmlns:xlink="http://www.w3.org/1999/xlink" x="0px" y="0px"
	 viewBox="0 0 20.3587112 20.3587112" enable-background="new 0 0 20.3587112 20.3587112" xml:space="preserve">
<g id="PS_2_">
	<g opacity="0.3">
		<rect x="0.0000011" y="-0.0000247" fill="#FFFFFF" width="20.3587112" height="20.3587112"/>
	</g>
	<path fill="#FFFFFF" d="M19.1455288,1.2132053v17.932312H1.2131854V1.2132053H19.1455288 M20.3587093,0.0000096H0.0000049
		v20.3587036h20.3587036V0.0000096L20.3587093,0.0000096z"/>
	<g>
		<path fill="#FFFFFF" d="M6.9660692,11.5691013l-0.7841797,2.5820312H4.4646044l2.9204102-9.1132812h2.1225586l2.9604492,9.1132812
			h-1.7841797l-0.824707-2.5820312H6.9660692z M9.5749559,10.3112888L8.8586473,8.0671482
			c-0.1757812-0.5546875-0.324707-1.1757812-0.4599609-1.703125H8.3718309
			C8.236577,6.891367,8.1013231,7.5261326,7.9392138,8.0671482l-0.703125,2.2441406H9.5749559z"/>
		<path fill="#FFFFFF" d="M15.3791552,5.7273045c0,0.5019531-0.3647461,0.8925781-0.9462891,0.8925781
			c-0.5541992,0-0.9189453-0.390625-0.9189453-0.8925781c0-0.5136719,0.378418-0.9042969,0.9326172-0.9042969
			C15.0144091,4.8230076,15.3659716,5.2136326,15.3791552,5.7273045z M13.6081591,14.1511326V7.5671482h1.6767578v6.5839844
			H13.6081591z"/>
	</g>
</g>
</svg>
