<?xml version="1.0" encoding="utf-8"?>
<!-- Generator: Adobe Illustrator 18.0.0, SVG Export Plug-In . SVG Version: 6.00 Build 0)  -->
<!DOCTYPE svg PUBLIC "-//W3C//DTD SVG 1.1//EN" "http://www.w3.org/Graphics/SVG/1.1/DTD/svg11.dtd">
<svg version="1.1" id="Ebene_1" xmlns="http://www.w3.org/2000/svg" xmlns:xlink="http://www.w3.org/1999/xlink" x="0px" y="0px"
	 viewBox="0 0 20.3587112 20.3587112" enable-background="new 0 0 20.3587112 20.3587112" xml:space="preserve">
<g id="PS_3_">
	<g opacity="0.3">
		<rect x="0.0000029" y="0.0000062" fill="#FFFFFF" width="20.3587112" height="20.3587112"/>
	</g>
	<path fill="#FFFFFF" d="M19.1455307,1.2131753v17.932312H1.2131872V1.2131753H19.1455307 M20.3587112-0.0000205H0.0000067
		v20.3587036h20.3587036V-0.0000205L20.3587112-0.0000205z"/>
	<g>
		<path fill="#FFFFFF" d="M7.6350164,5.0358071v9.1132812H5.9724188V5.0358071H7.6350164z"/>
		<path fill="#FFFFFF" d="M14.3996649,13.9596357c-0.3066406,0.0996094-0.6811523,0.1796875-1.1230469,0.2421875
			c-0.4418945,0.0644531-0.8745117,0.0957031-1.2983398,0.0957031c-0.9921875,0-1.7426758-0.2929688-2.2519531-0.8789062
			c-0.5097656-0.5859375-0.7641602-1.3886719-0.7641602-2.4082031c0-1.0371094,0.2138672-1.8554688,0.6420898-2.4550781
			s1.0620117-0.898438,1.9008789-0.898438c0.2250977,0,0.4462891,0.0234375,0.6625977,0.0742188
			c0.2163086,0.0488281,0.4057617,0.1191406,0.5678711,0.2089844V5.0455728l1.6640625-0.2832031V13.9596357z M10.6525946,10.9303389
			c0,0.5664062,0.105957,1.03125,0.3178711,1.3925781s0.5522461,0.5410156,1.0214844,0.5410156
			c0.1352539,0,0.2612305-0.0039062,0.378418-0.0136719s0.2392578-0.0234375,0.3652344-0.0410156V9.3463545
			c-0.1259766-0.0722656-0.2705078-0.1328125-0.4326172-0.1816406c-0.1625977-0.0507812-0.3339844-0.0742188-0.5141602-0.0742188
			c-0.3969727,0-0.6850586,0.15625-0.8657227,0.4726562C10.7429266,9.8795576,10.6525946,10.3346357,10.6525946,10.9303389z"/>
	</g>
</g>
</svg>
