<?xml version="1.0" encoding="utf-8"?>
<!-- Generator: Adobe Illustrator 18.0.0, SVG Export Plug-In . SVG Version: 6.00 Build 0)  -->
<!DOCTYPE svg PUBLIC "-//W3C//DTD SVG 1.1//EN" "http://www.w3.org/Graphics/SVG/1.1/DTD/svg11.dtd">
<svg version="1.1" id="Ebene_1" xmlns="http://www.w3.org/2000/svg" xmlns:xlink="http://www.w3.org/1999/xlink" x="0px" y="0px"
	 viewBox="0 0 20.3587112 20.3587112" enable-background="new 0 0 20.3587112 20.3587112" xml:space="preserve">
<g id="PS">
	<g opacity="0.3">
		<rect x="0.0000063" y="-0.0000238" fill="#FFFFFF" width="20.3587112" height="20.3587112"/>
	</g>
	<path fill="#FFFFFF" d="M19.1455326,1.2132063v17.932312H1.2131754V1.2132063H19.1455326 M20.3587132,0.0000105H-0.0000051
		v20.3587036h20.3587189V0.0000105L20.3587132,0.0000105z"/>
	<g>
		<path fill="#FFFFFF" d="M4.6809182,5.1587629c0.5947266-0.1074219,1.4194336-0.1894531,2.5415039-0.1894531
			c1.2167974,0,2.1088872,0.2578125,2.6904302,0.7441406c0.5405273,0.4453125,0.8920898,1.1621094,0.8920898,2.0136719
			c0,0.8652344-0.2705078,1.5820312-0.7841797,2.0683594c-0.6621094,0.6640625-1.703125,0.9746094-2.879395,0.9746094
			c-0.3110352,0-0.5947266-0.0136719-0.8110352-0.0546875v3.4335938H4.6809182V5.1587629z M6.3303323,9.4048567
			C6.532969,9.4575911,6.8034768,9.4712629,7.1413674,9.4712629c1.2436528,0,2.000977-0.6074219,2.000977-1.6757812
			c0-1.0136719-0.703125-1.5546875-1.8520513-1.5546875c-0.4599609,0-0.7841797,0.0410156-0.9599609,0.0800781V9.4048567z"/>
		<path fill="#FFFFFF" d="M11.8088484,12.6216536c0.3789062,0.2304688,1.0952148,0.4726562,1.6899414,0.4726562
			c0.7299805,0,1.0546875-0.296875,1.0546875-0.7285156c0-0.4472656-0.2705078-0.6777344-1.081543-0.9609375
			c-1.2841797-0.4453125-1.8251953-1.1484375-1.8115234-1.9199219c0-1.1621094,0.9599609-2.0683594,2.4873047-2.0683594
			c0.7299805,0,1.3657227,0.1894531,1.7441406,0.3925781l-0.324707,1.1757812
			c-0.2836914-0.1621094-0.8110352-0.3789062-1.3920898-0.3789062c-0.5952148,0-0.9194336,0.2851562-0.9194336,0.6894531
			c0,0.4199219,0.3110352,0.6230469,1.1489258,0.9199219c1.1899414,0.4316406,1.7441397,1.0410156,1.7578115,2.0136719
			c0,1.1894531-0.9331045,2.0546875-2.6767569,2.0546875c-0.7978516,0-1.5146484-0.1875-2.0009766-0.4589844L11.8088484,12.6216536z
			"/>
	</g>
</g>
</svg>
